<svg width="590" height="103" viewBox="0 0 590 103" fill="none" xmlns="http://www.w3.org/2000/svg">
<path fill-rule="evenodd" clip-rule="evenodd" d="M54.033 67.506C54.033 60.135 49.07 55.74 40.704 55.74H19.009V79.272H40.704C49.07 79.272 54.033 75.018 54.033 67.506ZM19.009 18.6003V40.0053H32.197C39.711 40.0053 44.389 35.8943 44.389 29.2323C44.389 22.5693 39.711 18.6003 32.197 18.6003H19.009ZM73.031 68.214C73.031 84.375 60.269 95.715 42.122 95.715H10.221C4.54701 95.715 0.437012 91.604 0.437012 85.934V11.9383C0.437012 6.26752 4.54701 2.15692 10.221 2.15692H33.616C51.051 2.15692 63.246 12.7883 63.246 28.2393C63.246 35.1853 60.835 40.8563 56.299 45.1083C66.79 48.7943 73.031 57.016 73.031 68.214Z" fill="#485D78"/>
<path fill-rule="evenodd" clip-rule="evenodd" d="M107.488 45.8183H123.508C132.3 45.8183 137.689 40.5723 137.689 32.3513C137.689 24.2703 132.16 19.0253 123.508 19.0253H107.488V45.8183ZM162.217 88.627C162.217 93.447 158.106 97.416 153.284 97.416C149.88 97.416 147.048 95.715 144.777 92.455L123.794 62.686H123.653H107.488V87.635C107.488 93.163 103.377 97.416 97.988 97.416C92.459 97.416 88.344 93.163 88.344 87.635V11.7963C88.344 6.26754 92.459 2.15704 98.129 2.15704H123.653C143.644 2.15704 157.254 14.3483 157.254 32.2093C157.254 43.5493 151.725 52.764 142.652 58.008L159.524 81.398C161.224 83.95 162.217 86.359 162.217 88.627Z" fill="#485D78"/>
<path fill-rule="evenodd" clip-rule="evenodd" d="M201.781 65.237H228.72L215.391 28.6653L201.781 65.237ZM257.503 88.202C257.503 93.305 253.533 97.416 248.144 97.416C244.033 97.416 240.911 95.006 239.071 90.612L235.101 80.973H195.541L191.57 90.612C189.871 95.006 186.748 97.416 182.638 97.416C177.249 97.416 173.139 93.305 173.139 88.202C173.139 86.785 173.565 85.083 174.272 83.099L206.318 6.97631C208.017 2.72391 211.14 0.456116 215.391 0.456116C219.646 0.456116 222.764 2.72391 224.464 6.97631L256.37 83.099C257.217 85.083 257.503 86.785 257.503 88.202Z" fill="#485D78"/>
<path fill-rule="evenodd" clip-rule="evenodd" d="M272.959 87.635V10.2363C272.959 4.70772 276.928 0.455322 282.603 0.455322C288.133 0.455322 292.102 4.70772 292.102 10.2363V87.635C292.102 93.163 288.133 97.416 282.603 97.416C276.928 97.416 272.959 93.163 272.959 87.635Z" fill="#485D78"/>
<path fill-rule="evenodd" clip-rule="evenodd" d="M393.051 10.2373V87.777C393.051 93.164 389.081 97.417 383.694 97.417C379.017 97.417 376.744 94.723 374.192 91.604L332.508 38.0213V87.635C332.508 93.164 328.399 97.417 323.011 97.417C317.479 97.417 313.37 93.164 313.37 87.635V10.0953C313.37 4.70871 317.479 0.456116 322.727 0.456116C327.548 0.456116 329.672 3.14941 332.508 6.69331L374.053 59.851L373.913 10.2373C373.913 4.70872 378.022 0.456116 383.555 0.456116C388.942 0.456116 393.051 4.70872 393.051 10.2373Z" fill="#485D78"/>
<path fill-rule="evenodd" clip-rule="evenodd" d="M410.786 59.627V15.0893C410.786 7.78732 416.187 2.38531 423.346 2.38531C430.5 2.38531 435.906 7.78732 435.906 15.0893V61.525C435.906 72.185 442.771 79.194 453.438 79.194C464.099 79.194 470.963 72.185 470.963 61.525V15.0893C470.963 7.78732 476.219 2.38531 483.523 2.38531C490.681 2.38531 496.082 7.78732 496.082 15.0893V59.627C496.082 84.743 478.557 102.267 453.438 102.267C428.312 102.267 410.786 84.743 410.786 59.627Z" fill="#E4BE3A"/>
<path fill-rule="evenodd" clip-rule="evenodd" d="M552.596 48.6763C559.607 48.6763 564.136 44.1493 564.136 37.2853C564.136 30.5683 559.607 26.0423 552.596 26.0423H539.744V48.6763H552.596ZM514.62 89.562V16.8423C514.62 9.54131 520.021 4.13861 527.325 4.13861H552.449C574.507 4.13861 589.693 17.5733 589.693 37.2853C589.693 56.707 574.214 70.579 552.449 70.579H539.744V89.562C539.744 96.864 534.343 102.267 527.185 102.267C520.021 102.267 514.62 96.864 514.62 89.562Z" fill="#E4BE3A"/>
</svg>
