<svg width="1400" height="1400" viewBox="0 0 1400 1400" fill="none" xmlns="http://www.w3.org/2000/svg">
<path fill-rule="evenodd" clip-rule="evenodd" d="M470.8 467.5C462 462.6 451.3 462.6 442.6 467.5L152.3 632.9C142.6 638.7 142.6 652.8 152.3 658.2L351.7 773L679.5 588.2L470.8 467.5Z" fill="#60CDD4"/>
<path fill-rule="evenodd" clip-rule="evenodd" d="M864.7 1050.9L853 1055.1C853 1055.1 857.9 1054.6 863.5 1054L864.7 1050.9Z" fill="#60CDD4"/>
<path fill-rule="evenodd" clip-rule="evenodd" d="M1090.1 924.7L1084.9 915.2L1076.9 913.7L868.9 1033.8L853.1 1055C853.1 1055 878.8 1052.4 879.1 1052.2L1078.8 937L1081.1 935.7L1087.4 932.1L1090.1 924.7Z" fill="#60CDD4"/>
<path fill-rule="evenodd" clip-rule="evenodd" d="M99.6998 936.9C132.3 969.5 531.8 1187.1 605.5 1229.7C611.7 1233.2 621.8 1233.2 628 1229.7L678.3 1200.6C679.2 1200.2 679.6 1199.7 680.5 1199.3C681.8 1198.7 683.4 1196.2 683.6 1194.4C683.9 1191.7 681.8 1189.5 678.3 1187.8L176 897.6C169.8 894.1 159.7 894.1 153.5 897.6L103.2 926.7C100.1 928.5 98.2998 930.7 98.2998 933.3C98.3998 934.8 98.6998 935.8 99.6998 936.9Z" fill="#60CDD4"/>
<path fill-rule="evenodd" clip-rule="evenodd" d="M128.4 911.7C161 944.3 560.5 1161.9 634.2 1204.5C640.4 1208 650.5 1208 656.7 1204.5L707 1175.4C707.9 1175 708.3 1174.5 709.2 1174.1C710.5 1173.5 712.1 1171 712.3 1169.2C712.6 1166.5 710.5 1164.3 707 1162.6L204.7 872.4C198.5 868.9 188.4 868.9 182.2 872.4L131.9 901.5C128.8 903.3 127 905.5 127 908.1C127 909.6 127.3 910.6 128.4 911.7Z" fill="white"/>
<path fill-rule="evenodd" clip-rule="evenodd" d="M712.3 1169.2C712.1 1170.9 710.5 1173.5 709.2 1174.1C708.3 1174.5 707.9 1175 707 1175.4L674.7 1194.1L656.7 1204.5C650.5 1208 640.4 1208 634.2 1204.5C560.4 1161.9 161 944.3 128.4 911.7C127.3 910.6 127 909.6 127.1 908.2C127.1 905.6 128.9 903.3 131.9 901.6L150.1 891.1L182.2 872.5C188.4 869 198.5 869 204.7 872.5L707 1162.6C710.5 1164.3 712.5 1166.5 712.3 1169.2Z" fill="#E4E4E4"/>
<path fill-rule="evenodd" clip-rule="evenodd" d="M674.7 1194.1L656.7 1204.5C650.5 1208 640.4 1208 634.2 1204.5C560.4 1161.9 161 944.3 128.4 911.7C127.3 910.6 127 909.6 127.1 908.2C127.1 905.6 128.9 903.3 131.9 901.6L150.1 891.1L674.7 1194.1Z" fill="white"/>
<path fill-rule="evenodd" clip-rule="evenodd" d="M131.7 922.6L131.9 922.7L634.6 1212.9C640.8 1216.4 650.9 1216.4 657.1 1212.9L707.4 1183.8C708.8 1183 712.3 1180.6 712.3 1176.7C712.3 1176.5 712.3 1166.2 712.3 1169.2C711.5 1172.7 709.2 1174.1 707 1175.4L657.2 1204.5C651 1208 640.9 1208 634.7 1204.5L132.8 914.8V914.7C131 913.8 127.1 911 127.1 908.9C127.1 908.5 127.1 908 127.1 908V916.4C127.1 918.4 129.2 920.8 131.7 922.6Z" fill="#DBDBDB"/>
<path fill-rule="evenodd" clip-rule="evenodd" d="M1125.6 685.7L1118.4 689.9L1125.6 685.7ZM1019.8 662.4C1045.5 647.5 1071.3 632.7 1097 617.8L1170.1 660L1164.6 663.2L1170.1 660L1357.3 768.1L1357.1 768.3V798.7L1305.6 828.7L1118.4 720.6L1019.8 662.4Z" fill="#60CDD4"/>
<path fill-rule="evenodd" clip-rule="evenodd" d="M1064.3 642.6L1116 612.7L1184 652L1132.3 681.8L1090.4 664.2L1064.3 642.6Z" fill="#E39064"/>
<path fill-rule="evenodd" clip-rule="evenodd" d="M1132.3 681.8L1207.3 717.1L1319.4 789.9L1325 804L1319.4 820.6L1132.3 712.5V681.8Z" fill="#004846"/>
<path fill-rule="evenodd" clip-rule="evenodd" d="M1132.3 681.8L1184 652L1371.2 760L1343.3 784.7L1319.4 789.9L1132.3 681.8Z" fill="#005755"/>
<path fill-rule="evenodd" clip-rule="evenodd" d="M1073.5 639.5V637.3L1110.6 618.1L1214 675.6V677.8L1176.9 699.2L1073.5 639.5Z" fill="#E77037"/>
<path fill-rule="evenodd" clip-rule="evenodd" d="M1214 675.6V677.8L1176.9 699.2V697L1176.5 675.6H1214Z" fill="#D9682C"/>
<path fill-rule="evenodd" clip-rule="evenodd" d="M1073.5 637.3L1110.6 615.9L1214 675.6L1176.9 697L1073.5 637.3Z" fill="#E39064"/>
<path fill-rule="evenodd" clip-rule="evenodd" d="M1371 759.9L1319.4 789.9V820.6L1371 790.6V759.9Z" fill="#00372D"/>
<path fill-rule="evenodd" clip-rule="evenodd" d="M1064.3 642.6L1132.3 681.8V712.5L1064.3 673.3V642.6Z" fill="#E77037"/>
<path fill-rule="evenodd" clip-rule="evenodd" d="M982.4 558.9L879.2 618.6L929.6 647.7L1032.8 588L982.4 558.9Z" fill="#60CDD4"/>
<path fill-rule="evenodd" clip-rule="evenodd" d="M1008.3 528.6L905.1 588.2L955.5 617.3L1058.7 557.7L1008.3 528.6Z" fill="#FFF9F5"/>
<path fill-rule="evenodd" clip-rule="evenodd" d="M955.5 617.3L1058.7 557.7V573.1L955.5 632.7V617.3Z" fill="#D2DADD"/>
<path fill-rule="evenodd" clip-rule="evenodd" d="M955.5 617.3L905.1 588.2V603.7L955.5 632.7V617.3Z" fill="#E2E7E9"/>
<path fill-rule="evenodd" clip-rule="evenodd" d="M946 564.6L940.8 567.6L991.2 596.7L996.4 593.7L946 564.6Z" fill="#E2E7E9"/>
<path fill-rule="evenodd" clip-rule="evenodd" d="M996.4 593.7L991.2 596.7V612.2L996.4 609.2V593.7Z" fill="#BAC6CB"/>
<path fill-rule="evenodd" clip-rule="evenodd" d="M1008.3 528.6L946 564.6L996.4 593.7L1058.7 557.7L1008.3 528.6Z" fill="#E39064"/>
<path fill-rule="evenodd" clip-rule="evenodd" d="M1058.7 557.7L996.4 593.7V609.2L1058.7 573.2V557.7Z" fill="#D9682C"/>
<path fill-rule="evenodd" clip-rule="evenodd" d="M329 893.5C321.3 898 321.2 905.2 328.9 909.7L637.9 1089.3C645.6 1093.8 658.1 1093.8 665.9 1089.3L901 953.6L564 757.8L329 893.5Z" fill="#60CDD4"/>
<path fill-rule="evenodd" clip-rule="evenodd" d="M876.9 955.4V946.5L865.3 939.8L855.6 943L876.9 955.4Z" fill="#C34900"/>
<path fill-rule="evenodd" clip-rule="evenodd" d="M911.3 918.1V926.8L1125.1 803.3L1125.3 803.2L1125.5 803.1L1125.7 803L1125.9 802.9L1126.1 802.8L1126.3 802.7L1126.4 802.6L1126.5 802.5L1126.6 802.4L1126.7 802.3L1126.8 802.2L1126.9 802.1L1127 802L1127.1 801.9L1127.2 801.8L1127.3 801.7L1127.4 801.6L1127.5 801.5L1127.6 801.4L1127.7 801.3L1127.8 801.2L1127.9 801.1L1128 801L1128.1 800.9L1128.2 800.8L1128.3 800.7L1128.4 800.6L1128.5 800.5L1128.6 800.4L1128.7 800.3L1128.8 800.2L1128.9 800.1L1129 800L1129.1 799.9L1129.2 799.8L1129.3 799.7L1129.4 799.6L1129.5 799.5L1129.6 799.4L1129.7 799.3L1129.8 799.2L1129.9 799.1L1130 799C1130.1 798.9 1130.1 798.8 1130.2 798.6V798.5C1130.4 797.8 1130.6 797.1 1130.6 796.4V787.7C1130.6 790.4 1128.8 793.1 1125.3 795.1L911.3 918.1Z" fill="#C34900"/>
<path fill-rule="evenodd" clip-rule="evenodd" d="M604.9 740V748.7L911.3 926.8V918.1L604.9 740Z" fill="#C34900"/>
<path fill-rule="evenodd" clip-rule="evenodd" d="M604.9 740L911.3 918.1L1125.1 794.6C1132.2 790.5 1132.2 783.9 1125.2 779.9L844.1 616.5C837.1 612.4 825.7 612.4 818.7 616.5L604.9 740Z" fill="#D9682C"/>
<path fill-rule="evenodd" clip-rule="evenodd" d="M570.5 759.8V768.5L876.9 946.6V937.9L570.5 759.8Z" fill="#C27136"/>
<path fill-rule="evenodd" clip-rule="evenodd" d="M876.9 946.7V955.4L911.3 935.6V926.8L876.9 946.7Z" fill="#C34900"/>
<path fill-rule="evenodd" clip-rule="evenodd" d="M570.5 768.7L876.9 946.8L911.3 926.8L604.9 748.9L570.5 768.7Z" fill="#D9682C"/>
<path fill-rule="evenodd" clip-rule="evenodd" d="M351.3 899.6V890.9V899.6ZM356.5 906.7L637.6 1070.1L637.9 1070.3H638L638.2 1070.4H638.3L638.6 1070.6L638.9 1070.7L639.2 1070.9L639.5 1071.1H639.6H639.7L639.9 1071.2L640.2 1071.3H640.3L640.6 1071.4L641 1071.5L641.3 1071.6H641.4L641.7 1071.7H641.8H641.9L642.1 1071.8H642.2L642.5 1071.9H642.6C642.9 1072 643.1 1072 643.4 1072.1C643.9 1072.2 644.3 1072.3 644.8 1072.4C645.6 1072.5 646.3 1072.6 647.1 1072.7C647.8 1072.8 648.4 1072.8 649.1 1072.8C649.7 1072.8 650.3 1072.8 650.9 1072.8H651C651.6 1072.8 652.1 1072.8 652.7 1072.7C653.3 1072.7 653.9 1072.6 654.4 1072.5C655 1072.4 655.6 1072.3 656.2 1072.2C656.8 1072.1 657.4 1071.9 658 1071.8L658.2 1071.7C658.8 1071.5 659.4 1071.3 660 1071.1C661 1070.7 662 1070.2 662.6 1069.9L876.4 946.6V937.7L662.5 1061.2C661.7 1061.7 660.9 1062.1 660 1062.4H659.9C659.3 1062.6 658.6 1062.9 657.9 1063.1C657.5 1063.2 657.2 1063.3 656.8 1063.4L656.4 1063.5L656.1 1063.6H656C655.7 1063.7 655.5 1063.7 655.2 1063.8L654.8 1063.9H654.7H654.6H654.5H654.4C654 1064 653.6 1064 653.2 1064C652.8 1064 652.4 1064.1 652 1064.1H651.6H651.4H651H650.7H650.6H650.4H650.3H650.2H650H649.9H649.6L649.2 1064H649H648.8C648.6 1064 648.4 1063.9 648.3 1063.9L648 1063.8H647.9L647.5 1063.7L647.1 1063.6L646.7 1063.5L646.3 1063.4L646 1063.3H645.9H645.8H645.7H645.5H645.4H645.3H645.2L645 1063.2H644.9C644.7 1063.1 644.4 1063 644.2 1062.9C643.2 1062.5 642.3 1062.1 641.4 1061.6V1070.3V1061.6L356.5 898L356.3 897.9H356.2L356.1 897.8L356 897.7L355.9 897.6L355.8 897.5C355.7 897.4 355.5 897.3 355.4 897.1C355.2 896.9 354.9 896.6 354.7 896.4V896.3V896.2L354.6 896.1L354.5 895.9L354.4 895.7L354.3 895.6V895.5V895.4V895.3C354.2 895.1 354.2 894.9 354.1 894.7V894.6V894.5V894.4V894.2V894V893.8V893.7V902.4V902.5V902.7V902.8V902.9V903V903.1V903.3L354.2 903.5V903.6V903.7V903.8V903.9L354.3 904V895.3V904L354.5 904.2L354.6 904.3L354.7 904.4C355.2 904.8 355.8 905.2 356.4 905.6L356.5 906.7Z" fill="#C34900"/>
<path fill-rule="evenodd" clip-rule="evenodd" d="M356.6 883.3C349.6 887.4 349.5 894 356.5 898L637.6 1061.3C644.6 1065.4 656 1065.4 663 1061.3L876.9 937.8L570.5 759.8L356.6 883.3Z" fill="#D9682C"/>
<path fill-rule="evenodd" clip-rule="evenodd" d="M601.3 725.3V751.7L895 922.4V896L601.3 725.3Z" fill="#BECAA4"/>
<path fill-rule="evenodd" clip-rule="evenodd" d="M977.5 827.5C997.1 816.2 1018.6 806 1041.9 797.2L1112.2 770.5L818.5 599.9L748.2 626.6C724.9 635.4 703.3 645.6 683.8 656.9C668.7 665.6 654.7 675.1 642.1 685.1C745.4 737.3 844.8 792.9 943.2 850.1C953.8 842.1 965.2 834.6 977.5 827.5Z" fill="#FFF9F5"/>
<path fill-rule="evenodd" clip-rule="evenodd" d="M642.1 685C626.3 697.6 612.6 711 601.3 725.3L895 896C908.1 879.6 924.3 864.2 943.2 850.1C844.8 792.8 745.4 737.2 642.1 685Z" fill="#E6E6E6"/>
<path fill-rule="evenodd" clip-rule="evenodd" d="M1042 823.7L1112.3 797L1112.2 770.6L1041.9 797.3H1041.8H1041.7H1041.6H1041.5H1041.4H1041.3H1041.2H1041.1H1041H1040.9H1040.8H1040.7H1040.6H1040.5H1040.4H1040.3H1040.2H1040.1H1040L1039.7 797.4H1039.6H1039.5H1039.4L1039.2 797.5H1039.1L1038.8 797.6H1038.7H1038.6H1038.5H1038.4H1038.3H1038.2H1038.1H1038H1037.9H1037.8H1037.7H1037.6H1037.5H1037.4H1037.3H1037.2H1037.1H1037H1036.9H1036.8H1036.7H1036.6H1036.5H1036.4H1036.3H1036.2H1036.1H1036H1035.9H1035.8L1034.8 798L1033.8 798.4L1032.9 798.8L1032.8 798.9L1032 799.2L1031.8 799.3L1031 799.6L1030.7 799.7L1030 800L1029.6 800.2L1029 800.4L1028.5 800.6L1028 800.8L1027.4 801C1026.3 801.4 1025.3 801.9 1024.2 802.3L1024 802.4L1023.1 802.8H1023L1022 803.2L1021 803.6H1020.9L1020 804L1019.8 804.1L1019 804.4L1018.7 804.5H1018.6L1017.6 804.9L1017 805.2L1016.6 805.4L1015.6 805.9L1015.2 806.1L1014.6 806.4L1013.6 806.9L1013.3 807L1012.6 807.3L1012.4 807.4L1011.6 807.8C1010.9 808.1 1010.3 808.4 1009.6 808.7L1007.6 809.6L1006.9 809.9L1006.6 810L1006 810.3L1005.6 810.5L1003.7 811.4L1003.6 811.5L1001.7 812.4L1001.5 812.5L1000.7 812.9L1000.5 813L999.7 813.4L998.7 813.9L997.7 814.4L996.9 814.8L996.7 814.9L996 815.3L995.8 815.4L995.1 815.7L994.8 815.9C993.8 816.4 992.9 816.9 991.9 817.4L991.6 817.6L991 817.9L990.7 818L990 818.4L989.8 818.5L989 818.9L988 819.4L987.1 819.9L986.3 820.3L986.2 820.4L985.4 820.8L985.2 820.9L984.5 821.3L984.2 821.4L983.6 821.7L983.3 821.9L982.8 822.2L982.4 822.4H982.3C981.4 822.9 980.5 823.4 979.6 823.9H979.5L979.3 824L978.6 824.4L978.5 824.5L977.7 824.9H977.6L976.8 825.4C942.7 845.1 914.7 868.3 894.3 893.8L894.4 920.2C914.8 894.6 942.8 871.5 976.9 851.8L977.7 851.3H977.8L978.6 850.9L978.7 850.8L979.4 850.4L979.6 850.3L980.2 849.9L980.5 849.7L981.1 849.4L981.5 849.2L982 848.9L982.4 848.7L982.8 848.5L983.3 848.2L983.6 848L984.2 847.7L984.5 847.6L985.2 847.2L986.1 846.7L986.2 846.6L987 846.2L987.9 845.7L988.9 845.2L989.7 844.8L989.9 844.7C991.2 844 992.5 843.4 993.8 842.7L994.2 842.5L994.8 842.2C995.4 841.9 996.1 841.5 996.7 841.2L996.9 841.1L997.7 840.7H997.8L998.7 840.3C1003.9 837.7 1009.3 835.2 1014.8 832.7C1016.1 832.1 1017.5 831.5 1018.8 830.9H1018.9L1019.2 830.8L1020 830.5L1020.2 830.4L1021.1 830L1022.1 829.6L1023.1 829.2L1024 828.8L1024.2 828.7C1025.3 828.3 1026.3 827.8 1027.4 827.4L1028 827.2L1028.5 827L1029 826.8L1029.6 826.6L1031.7 825.8H1031.8L1032 825.7L1032.8 825.4L1032.9 825.3L1033.8 824.9L1034.8 824.5L1035.8 824.1H1035.9H1036H1036.1H1036.2C1037.2 823.7 1038.3 823.3 1039.3 822.9H1039.4L1039.7 822.8H1039.8H1039.9H1040H1040.1H1040.2H1040.3H1040.4H1040.5H1040.6H1040.7H1040.8H1040.9H1041H1041.1H1041.2H1041.3L1042 823.7Z" fill="#DBD2D1"/>
<path fill-rule="evenodd" clip-rule="evenodd" d="M625.2 970.6L625.3 997L656.6 969.5V943.1L625.2 970.6Z" fill="#909B81"/>
<path fill-rule="evenodd" clip-rule="evenodd" d="M625.2 970.6L625.3 997L628.1 998.1L628 971.7L625.2 970.6Z" fill="#747677"/>
<path fill-rule="evenodd" clip-rule="evenodd" d="M628 971.7L628.1 998.1L659.5 970.6L659.4 944.2L628 971.7Z" fill="#747677"/>
<path fill-rule="evenodd" clip-rule="evenodd" d="M430.3 810.1L384 850.7L677.7 1021.4L724 980.8C739.3 967.3 757 954.9 776.5 943.6C810.6 923.9 850.7 907.7 894.9 896L601.3 725.3C557.1 737 517 753.2 482.9 772.9C463.3 784.1 445.7 796.6 430.3 810.1Z" fill="#FFF9F5"/>
<path fill-rule="evenodd" clip-rule="evenodd" d="M384.1 850.7V877.1L677.9 1047.8L677.8 1021.3L384.1 850.7Z" fill="#D2C8C6"/>
<path fill-rule="evenodd" clip-rule="evenodd" d="M756.3 982.6C756.9 982.2 757.4 981.8 758 981.5L756.3 982.6ZM677.8 1021.3L677.9 1047.7L724.2 1007.1L724.9 1006.5L725.6 1005.9L726.3 1005.3L727 1004.7L727.7 1004.1L728.4 1003.5L729.1 1002.9L729.8 1002.3L730.5 1001.7L731.3 1001.1L732.1 1000.5L732.9 999.9L733.7 999.3L734.5 998.7L735.3 998.1L736.1 997.5L736.9 996.9L737.7 996.3L738.5 995.7L739.3 995.1L740.1 994.5L740.9 993.9L741.7 993.3L742.5 992.7L743.3 992.1L744.1 991.5L744.9 990.9L745.7 990.3L746.5 989.7L747.3 989.1L748.1 988.5L748.9 987.9L749.7 987.3L750.5 986.7L751.3 986.1L752.1 985.5L752.9 984.9L753.7 984.3L754.5 983.7L755.3 983.1L756.1 982.5C756.7 982.1 757.2 981.7 757.8 981.4C758.7 980.8 759.5 980.3 760.4 979.7L761.3 979.1C766.2 975.9 771.3 972.9 776.5 969.9C781 967.3 785.6 964.8 790.3 962.3L790.5 962.2C791.9 961.4 793.4 960.7 794.8 959.9L795.7 959.4L796.6 959L797.5 958.5L798.4 958L799.3 957.5L800 957.1L800.2 957L801.1 956.6L801.4 956.4L801.6 956.3L802.9 955.7L803.1 955.6L803.3 955.5L804.5 954.9L805.3 954.5L805.6 954.3L806.5 953.9H806.6L808.1 953.2L808.2 953.1H808.3L809.7 952.5L810.4 952.2L811.5 951.7L811.8 951.6L812.1 951.5L813 951.1L813.6 950.8L814 950.6L814.9 950.2L815 950.1L815.6 949.8L817.1 949.1H817.2L818.7 948.4L819 948.3L819.1 948.2L820.6 947.5L820.7 947.4L822.4 946.7L823.9 946.1L824.3 945.9H824.4L824.7 945.8C826.2 945.2 827.7 944.5 829.2 943.9L829.8 943.7L829.9 943.6L831.1 943.1L831.6 942.9L832.1 942.7L833.1 942.3L833.5 942.1L833.7 942L835.1 941.4L835.4 941.3L835.9 941.1L836.6 940.8L836.9 940.7L837.3 940.5L838 940.2C839 939.8 840 939.4 841 939.1C842.2 938.6 843.5 938.2 844.7 937.7H844.8L845.5 937.5L846.3 937.2L846.8 937L847.1 936.9C848.3 936.5 849.5 936 850.7 935.6L850.9 935.5C855.3 933.9 859.8 932.4 864.4 930.9C866.3 930.3 868.3 929.7 870.2 929H870.3C875 927.5 879.7 926.1 884.4 924.8C886.4 924.2 888.4 923.7 890.5 923.1H890.6L892.5 922.6H892.7H892.8H893L894.5 922.2H894.7H894.9L895 896H894.8H894.6L893.3 896.3H893.1H892.9H892.8H892.6L891 896.7H890.8H890.7H890.6H890.4H890.2H890H889.8L889.5 896.8H889.3H889.1H888.9H888.7H888.5H888.3H888.2H888.1H887.9H887.7L887.4 896.9H887.2L886.9 897H886.7H886.5H886.3H886.1L885.5 897.2H885.3H885.1H884.9H884.7H884.5H884.3L883.7 897.4L882.9 897.6L882.1 897.8L881.3 898L880.5 898.2H880.4L879 898.6L878.2 898.8C877.1 899.1 876.1 899.4 875 899.7L874.2 899.9L872.6 900.4L871.8 900.6L871 900.8L870.2 901H870.1L868.7 901.4H868.6L867.8 901.6L867 901.8L866.2 902L864.6 902.5L863.8 902.8L863 903.1L862.2 903.4H862.1L860.6 903.9L859.8 904.2L859 904.5L858.2 904.8L857.4 905.1H857.3L856.6 905.3L855.8 905.6L855 905.9L854.2 906.2L853.4 906.5L852.6 906.8L851.8 907.1L851.1 907.4L850.3 907.7L849.5 908L848.7 908.3L847.9 908.6L847.3 908.8L847.2 908.9L846.4 909.2L845.6 909.5L844.8 909.8L844 910.1L843.3 910.3H843.2L843.1 910.4L841.7 910.9L841.1 911.1H841L840.3 911.4L840 911.5L839.1 911.8L838.8 911.9L838.1 912.2L837.7 912.4L837.4 912.5L835.9 913.1H835.8H835.7L834.3 913.6L833.8 913.8L833.5 913.9L832.3 914.4L831.5 914.7L830.2 915.2L830 915.3L828.6 915.9L828.2 916.1L828 916.2L826.6 916.8L826.3 916.9L826 917L824.6 917.6L824.4 917.7L824.3 917.8L823.1 918.3L822.1 918.7L821 919.2L820.7 919.3L819.7 919.7L819.4 919.8L818.4 920.2L817.2 920.7L817.1 920.8L816.8 920.9L815.8 921.3L815.6 921.4L814.8 921.7L813.5 922.3L813.3 922.4L811.7 923.1L811.6 923.2L810.2 923.9L809.5 924.2L809.2 924.3L808.3 924.7L808.1 924.8L807.9 924.9L806.8 925.4L805.9 925.8L804.8 926.3L804.5 926.4L804.3 926.5L803 927.1L802.8 927.2L802.7 927.3L801.1 928.1L800.9 928.2L799.6 928.8L799.4 928.9L799.1 929.1L800 931L799.8 931.1L799.4 931.3L798.2 931.9L798 932L796.4 932.8L794.9 933.6L794.7 933.7L794.5 933.8L793.1 934.5H793H792.9L791.3 935.3L789.6 936.2L789.5 936.3L788.2 937L788 937.1L787.8 937.2L786.5 937.9L786.3 938C785.2 938.6 784.2 939.1 783.2 939.7L783.1 939.8L781.8 940.5L781.5 940.7H781.4L780 941.5L779.8 941.6L778.3 942.4L778.2 942.5L778 942.6L776.6 943.4L775.7 943.9L774.8 944.4L773.9 944.9L773 945.4L772.1 945.9L771.2 946.4L770.3 946.9L769.4 947.4L768.5 947.9L767.6 948.4L766.7 948.9L765.8 949.4L764.9 950L764 950.6L763.1 951.2L762.2 951.8L761.3 952.4L760.4 953L759.5 953.6L758.6 954.2L758 955L757.1 955.6L756.2 956.2L755.4 956.8L754.6 957.4L753.8 958L753 958.6L752 959L751.2 959.6L750.4 960.2L749.6 960.8L748.8 961.4L748 962L747.2 962.6L746.4 963.2L745.6 963.8L744.8 964.4L744 965L743.2 965.6L742.4 966.2L741.6 966.8L740.8 967.4L740 968L739.2 968.6L738.4 969.2L737.6 969.8C737.1 970.2 736.6 970.6 736 971L735.2 971.6L734.4 972.2L733.6 972.8L732.8 973.4C729.8 975.9 726.8 978.3 723.9 980.9L677.8 1021.3Z" fill="#DBD2D1"/>
<path fill-rule="evenodd" clip-rule="evenodd" d="M889.8 1027.9L865.7 1047.8L881.5 1026.6L889.8 1027.9Z" fill="#FFE9B4"/>
<path fill-rule="evenodd" clip-rule="evenodd" d="M889.8 1027.9L895.2 1037.3L865.7 1047.8L889.8 1027.9Z" fill="#F5D59C"/>
<path fill-rule="evenodd" clip-rule="evenodd" d="M895.2 1037.3L865.7 1047.8C865.7 1047.8 891.4 1045.2 891.7 1045C892 1044.9 895.2 1037.3 895.2 1037.3Z" fill="#D2996D"/>
<path fill-rule="evenodd" clip-rule="evenodd" d="M875.1 1040.1L865.7 1047.8L871.8 1039.5L875.1 1040.1Z" fill="#3A3850"/>
<path fill-rule="evenodd" clip-rule="evenodd" d="M877.4 1043.6L865.7 1047.8L875.1 1040.1L877.4 1043.6Z" fill="#333647"/>
<path fill-rule="evenodd" clip-rule="evenodd" d="M877.4 1043.6L865.7 1047.8C865.7 1047.8 870.6 1047.3 876.2 1046.7L877.4 1043.6Z" fill="#262630"/>
<path fill-rule="evenodd" clip-rule="evenodd" d="M1089.5 906.4L1097.5 907.9L1102.8 917.4L1100.1 924.7L891.7 1045L895.2 1037.3L889.8 1027.9L881.5 1026.6L1089.5 906.4Z" fill="#E44643"/>
<path fill-rule="evenodd" clip-rule="evenodd" d="M1093.8 928.3L891.7 1045L895.2 1037.3L889.8 1027.9L881.5 1026.6L1083.2 910L1091.2 911.6L1096.5 921L1093.8 928.3Z" fill="#DFD8EA"/>
<path fill-rule="evenodd" clip-rule="evenodd" d="M1091.5 929.7L891.7 1045L895.2 1037.3L889.8 1027.9L881.5 1026.6L1080.9 911.4L1088.9 912.9L1094.1 922.4L1091.5 929.7Z" fill="#E3A723"/>
<path fill-rule="evenodd" clip-rule="evenodd" d="M1080.9 911.4L1088.9 912.9L889.8 1027.9L881.5 1026.6L1080.9 911.4Z" fill="#FDCF58"/>
<path fill-rule="evenodd" clip-rule="evenodd" d="M1088.9 912.9L1094.1 922.4L895.2 1037.3L889.8 1027.9L1088.9 912.9Z" fill="#FFBD24"/>
<path fill-rule="evenodd" clip-rule="evenodd" d="M1083.2 910L1089.5 906.4L1097.5 907.9L1091.2 911.6L1083.2 910Z" fill="#F17F7C"/>
<path fill-rule="evenodd" clip-rule="evenodd" d="M1091.2 911.6L1097.5 907.9L1102.8 917.4L1096.5 921L1091.2 911.6Z" fill="#E6605C"/>
<path fill-rule="evenodd" clip-rule="evenodd" d="M166.7 617.2C167.2 616.7 515.9 452.3 515.9 452.3L661.8 536.9L700.7 558.3L700.2 576.3L371 762.6C371 762.6 237.7 684.8 174.5 648.3C168.7 644.9 165.3 639.1 165.3 632.7L166.7 617.2Z" fill="black"/>
<path fill-rule="evenodd" clip-rule="evenodd" d="M166.7 617.2C167.2 616.7 275.2 566.1 371 520.9V762.1C363.2 757.2 235.8 683.3 175 648.3C169.2 644.9 165.8 639.1 165.8 632.7L166.7 617.2Z" fill="black"/>
<path fill-rule="evenodd" clip-rule="evenodd" d="M492.1 437.7C483.3 432.8 472.6 432.8 463.9 437.7L173.5 603.1C163.8 608.9 163.8 623 173.5 628.4L373 743.2L700.8 558.4L492.1 437.7Z" fill="black"/>
<path fill-rule="evenodd" clip-rule="evenodd" d="M520.3 593.8L404.6 527.2L342.3 562.2L459.5 629.8L520.3 593.8Z" fill="black"/>
<path fill-rule="evenodd" clip-rule="evenodd" d="M166.7 617.2C167.2 616.7 515.9 452.3 515.9 452.3L661.8 536.9L700.7 558.3L700.2 576.3L371 762.6C371 762.6 237.7 684.8 174.5 648.3C168.7 644.9 165.3 639.1 165.3 632.7L166.7 617.2Z" fill="black"/>
<path fill-rule="evenodd" clip-rule="evenodd" d="M166.7 617.2C167.2 616.7 275.2 566.1 371 520.9V762.1C363.2 757.2 235.8 683.3 175 648.3C169.2 644.9 165.8 639.1 165.8 632.7L166.7 617.2Z" fill="black"/>
<path fill-rule="evenodd" clip-rule="evenodd" d="M492.1 437.7C483.3 432.8 472.6 432.8 463.9 437.7L173.5 603.1C163.8 608.9 163.8 623 173.5 628.4L373 743.2L700.8 558.4L492.1 437.7Z" fill="black"/>
<path fill-rule="evenodd" clip-rule="evenodd" d="M520.3 593.8L404.6 527.2L342.3 562.2L459.5 629.8L520.3 593.8Z" fill="black"/>
<path fill-rule="evenodd" clip-rule="evenodd" d="M166.7 612.3C167.2 611.8 515.9 447.4 515.9 447.4L661.8 532L700.7 553.4L700.2 571.4L371 757.8C371 757.8 237.7 680 174.5 643.5C168.7 640.1 165.3 634.3 165.3 627.9L166.7 612.3Z" fill="#FFD46C"/>
<path fill-rule="evenodd" clip-rule="evenodd" d="M166.7 612.3C167.2 611.8 275.2 561.2 371 516V757.2C363.2 752.3 235.8 678.4 175 643.4C169.2 640 165.8 634.2 165.8 627.8L166.7 612.3Z" fill="#FFD46C"/>
<path fill-rule="evenodd" clip-rule="evenodd" d="M492.1 432.9C483.3 428 472.6 428 463.9 432.9L173.5 598.2C163.8 604 163.8 618.1 173.5 623.5L373 738.3L700.8 553.5L492.1 432.9Z" fill="#FFD46C"/>
<path fill-rule="evenodd" clip-rule="evenodd" d="M520.3 589L404.6 522.4L342.3 557.4L459.5 625L520.3 589Z" fill="#FFD46C"/>
<path fill-rule="evenodd" clip-rule="evenodd" d="M166.7 612.3C167.2 611.8 515.9 447.4 515.9 447.4L661.8 532L700.7 553.4L700.2 571.4L371 757.8C371 757.8 237.7 680 174.5 643.5C168.7 640.1 165.3 634.3 165.3 627.9L166.7 612.3Z" fill="black"/>
<path fill-rule="evenodd" clip-rule="evenodd" d="M166.7 612.3C167.2 611.8 275.2 561.2 371 516V757.2C363.2 752.3 235.8 678.4 175 643.4C169.2 640 165.8 634.2 165.8 627.8L166.7 612.3Z" fill="#CBCBCB"/>
<path fill-rule="evenodd" clip-rule="evenodd" d="M492.1 432.9C483.3 428 472.6 428 463.9 432.9L173.5 598.2C163.8 604 163.8 618.1 173.5 623.5L373 738.3L700.8 553.5L492.1 432.9Z" fill="#505253"/>
<path fill-rule="evenodd" clip-rule="evenodd" d="M520.3 589L404.6 522.4L342.3 557.4L459.5 625L520.3 589Z" fill="white"/>
<path fill-rule="evenodd" clip-rule="evenodd" d="M822.8 500.9C869.8 500.9 907.9 515 907.9 532.3C907.9 549.6 869.8 563.7 822.8 563.7C775.8 563.7 737.7 549.6 737.7 532.3C737.7 515 775.8 500.9 822.8 500.9Z" fill="#60CDD4"/>
<path fill-rule="evenodd" clip-rule="evenodd" d="M910.2 528.8C910.2 547.2 878.7 561.9 842.3 561.9C805.8 561.9 774.4 547.2 774.4 528.8C774.4 527.5 774.7 374.9 774.7 374.9L908.6 375.2C908.6 375.2 910.2 527.8 910.2 528.8Z" fill="#D9682C"/>
<path fill-rule="evenodd" clip-rule="evenodd" d="M909.2 374.5C909.2 392.9 879.4 408 842.6 408C805.8 408 776 392.9 776 374.5C776 356.1 805.8 341 842.6 341C879.5 341.1 909.2 356.1 909.2 374.5Z" fill="#E39064"/>
<path fill-rule="evenodd" clip-rule="evenodd" d="M842.6 395.9C807.5 395.9 788.4 381.2 788.4 373.5C788.4 365.8 807.5 351.1 842.9 351.1C878 351.1 897.1 365.8 897.1 373.5C896.9 381.2 877.8 395.9 842.6 395.9Z" fill="#CA3F27"/>
<path fill-rule="evenodd" clip-rule="evenodd" d="M850.7 485C850.4 487 846 488 841.7 487C837.7 486 834 483.3 834.7 481.3C834.7 481 889.6 245.7 889.6 245.7L900 242.7L905.4 249.4C904.9 249.4 850.7 484.6 850.7 485Z" fill="#005755"/>
<path fill-rule="evenodd" clip-rule="evenodd" d="M905.2 249.4C905.2 249.4 902.9 247.1 898.8 246.1C898.5 246.1 898.5 246.1 898.1 246.1C893.7 245.1 889.7 246.1 889.7 246.1L903.8 220L905.2 249.4Z" fill="#FDDCAF"/>
<path fill-rule="evenodd" clip-rule="evenodd" d="M904.9 233.6C904.6 226.6 904.2 219.5 904.2 219.5C904.2 219.5 900.9 225.5 897.5 231.9L904.9 233.6Z" fill="black"/>
<path fill-rule="evenodd" clip-rule="evenodd" d="M854.7 513.1C855.4 515.1 859.7 515.4 863.7 513.8C867.7 512.1 870.7 509.1 870.1 507.1L784.8 280.9L774.1 279.2L769.7 286.6C769.7 286.8 854.7 513.1 854.7 513.1Z" fill="#F3DA77"/>
<path fill-rule="evenodd" clip-rule="evenodd" d="M769.3 286.8C769.3 286.8 771.3 284.1 775 282.4C775.3 282.4 775.3 282.4 775.7 282.1C779.7 280.4 784.1 281.1 784.1 281.1L766.7 257.3L769.3 286.8Z" fill="#FDDCAF"/>
<path fill-rule="evenodd" clip-rule="evenodd" d="M767.7 271.5C767 264.5 766.7 257.4 766.7 257.4C766.7 257.4 770.7 262.8 775.1 268.4L767.7 271.5Z" fill="black"/>
<path fill-rule="evenodd" clip-rule="evenodd" d="M848.3 476.3C848.6 478.3 852.7 479.6 857 479.3C861.4 479 865 476.6 864.7 474.6C864.7 474.3 838.9 234 838.9 234L828.9 229.6L822.9 235.6C823.2 236 848.3 476.3 848.3 476.3Z" fill="#A8E4DC"/>
<path fill-rule="evenodd" clip-rule="evenodd" d="M822.9 236C822.9 236 825.6 234 829.6 233.3C829.9 233.3 829.9 233.3 830.3 233.3C834.7 233 838.7 234.3 838.7 234.3L828 206.9L822.9 236Z" fill="#FDDCAF"/>
<path fill-rule="evenodd" clip-rule="evenodd" d="M825.2 220.6C826.5 213.6 827.5 206.9 827.5 206.9C827.5 206.9 830.2 213.3 832.9 220L825.2 220.6Z" fill="black"/>
<path d="M153.2 913.3L141.7 919.9L143.9 921.2L155.4 914.5L153.2 913.3Z" fill="#60CDD4"/>
<path d="M159.7 917L148.2 923.7L150.4 925L161.9 918.3L159.7 917Z" fill="#60CDD4"/>
<path d="M166.2 920.7L154.7 927.4L156.9 928.7L168.4 922L166.2 920.7Z" fill="#60CDD4"/>
<path d="M179.2 928.2L167.7 934.9L169.9 936.2L181.4 929.5L179.2 928.2Z" fill="#60CDD4"/>
<path d="M185.7 932L174.1 938.7L176.4 939.9L187.9 933.3L185.7 932Z" fill="#60CDD4"/>
<path d="M192.1 935.7L180.6 942.4L182.8 943.7L194.3 937L192.1 935.7Z" fill="#60CDD4"/>
<path d="M205.1 943.2L193.6 949.9L195.8 951.2L207.3 944.5L205.1 943.2Z" fill="#60CDD4"/>
<path d="M211.6 947L200.1 953.7L202.3 954.9L213.8 948.2L211.6 947Z" fill="#60CDD4"/>
<path d="M218.1 950.7L206.6 957.4L208.8 958.7L220.3 952L218.1 950.7Z" fill="#60CDD4"/>
<path d="M231.1 958.2L219.6 964.9L221.8 966.2L233.3 959.5L231.1 958.2Z" fill="#60CDD4"/>
<path d="M237.6 961.9L226.1 968.6L228.3 969.9L239.8 963.2L237.6 961.9Z" fill="#60CDD4"/>
<path d="M244 965.7L232.5 972.4L234.8 973.7L246.3 967L244 965.7Z" fill="#60CDD4"/>
<path d="M257 973.2L245.5 979.9L247.7 981.1L259.2 974.5L257 973.2Z" fill="#60CDD4"/>
<path d="M263.5 976.9L252 983.6L254.2 984.9L265.7 978.2L263.5 976.9Z" fill="#60CDD4"/>
<path d="M270 980.7L258.5 987.4L260.7 988.6L272.2 981.9L270 980.7Z" fill="#60CDD4"/>
<path d="M283 988.2L271.5 994.8L273.7 996.1L285.2 989.4L283 988.2Z" fill="#60CDD4"/>
<path d="M289.5 991.9L278 998.6L280.2 999.9L291.7 993.2L289.5 991.9Z" fill="#60CDD4"/>
<path d="M296 995.7L284.4 1002.3L286.7 1003.6L298.2 996.9L296 995.7Z" fill="#60CDD4"/>
<path d="M308.9 1003.1L297.4 1009.8L299.6 1011.1L311.1 1004.4L308.9 1003.1Z" fill="#60CDD4"/>
<path d="M315.4 1006.9L303.9 1013.6L306.1 1014.9L317.6 1008.2L315.4 1006.9Z" fill="#60CDD4"/>
<path d="M321.9 1010.6L310.4 1017.3L312.6 1018.6L324.1 1011.9L321.9 1010.6Z" fill="#60CDD4"/>
<path d="M334.9 1018.1L323.4 1024.8L325.6 1026.1L337.1 1019.4L334.9 1018.1Z" fill="#60CDD4"/>
<path d="M341.4 1021.9L329.9 1028.6L332.1 1029.8L343.6 1023.1L341.4 1021.9Z" fill="#60CDD4"/>
<path d="M347.9 1025.6L336.4 1032.3L338.6 1033.6L350.1 1026.9L347.9 1025.6Z" fill="#60CDD4"/>
<path d="M360.8 1033.1L349.3 1039.8L351.5 1041.1L363.1 1034.4L360.8 1033.1Z" fill="#60CDD4"/>
<path d="M367.3 1036.8L355.8 1043.5L358 1044.8L369.5 1038.1L367.3 1036.8Z" fill="#60CDD4"/>
<path d="M373.8 1040.6L362.3 1047.3L364.5 1048.6L376 1041.9L373.8 1040.6Z" fill="#60CDD4"/>
<path d="M386.8 1048.1L375.3 1054.8L377.5 1056L389 1049.4L386.8 1048.1Z" fill="#60CDD4"/>
<path d="M393.3 1051.8L381.8 1058.5L384 1059.8L395.5 1053.1L393.3 1051.8Z" fill="#60CDD4"/>
<path d="M399.8 1055.6L388.3 1062.3L390.5 1063.5L402 1056.9L399.8 1055.6Z" fill="#60CDD4"/>
<path d="M412.8 1063.1L401.2 1069.8L403.5 1071L415 1064.3L412.8 1063.1Z" fill="#60CDD4"/>
<path d="M419.2 1066.8L407.7 1073.5L409.9 1074.8L421.4 1068.1L419.2 1066.8Z" fill="#60CDD4"/>
<path d="M425.7 1070.6L414.2 1077.2L416.4 1078.5L427.9 1071.8L425.7 1070.6Z" fill="#60CDD4"/>
<path d="M438.7 1078L427.2 1084.7L429.4 1086L440.9 1079.3L438.7 1078Z" fill="#60CDD4"/>
<path d="M445.2 1081.8L433.7 1088.5L435.9 1089.8L447.4 1083.1L445.2 1081.8Z" fill="#60CDD4"/>
<path d="M451.7 1085.5L440.2 1092.2L442.4 1093.5L453.9 1086.8L451.7 1085.5Z" fill="#60CDD4"/>
<path d="M464.7 1093L453.2 1099.7L455.4 1101L466.9 1094.3L464.7 1093Z" fill="#60CDD4"/>
<path d="M471.1 1096.8L459.6 1103.5L461.8 1104.7L473.4 1098L471.1 1096.8Z" fill="#60CDD4"/>
<path d="M477.6 1100.5L466.1 1107.2L468.3 1108.5L479.8 1101.8L477.6 1100.5Z" fill="#60CDD4"/>
<path d="M490.6 1108L479.1 1114.7L481.3 1116L492.8 1109.3L490.6 1108Z" fill="#60CDD4"/>
<path d="M497.1 1111.8L485.6 1118.4L487.8 1119.7L499.3 1113L497.1 1111.8Z" fill="#60CDD4"/>
<path d="M503.6 1115.5L492.1 1122.2L494.3 1123.5L505.8 1116.8L503.6 1115.5Z" fill="#60CDD4"/>
<path d="M516.6 1123L505.1 1129.7L507.3 1130.9L518.8 1124.3L516.6 1123Z" fill="#60CDD4"/>
<path d="M523.1 1126.7L511.5 1133.4L513.8 1134.7L525.3 1128L523.1 1126.7Z" fill="#60CDD4"/>
<path d="M529.5 1130.5L518 1137.2L520.2 1138.4L531.8 1131.8L529.5 1130.5Z" fill="#60CDD4"/>
<path d="M542.5 1138L531 1144.7L533.2 1145.9L544.7 1139.2L542.5 1138Z" fill="#60CDD4"/>
<path d="M549 1141.7L537.5 1148.4L539.7 1149.7L551.2 1143L549 1141.7Z" fill="#60CDD4"/>
<path d="M555.5 1145.5L544 1152.1L546.2 1153.4L557.7 1146.7L555.5 1145.5Z" fill="#60CDD4"/>
<path d="M568.5 1152.9L557 1159.6L559.2 1160.9L570.7 1154.2L568.5 1152.9Z" fill="#60CDD4"/>
<path d="M575 1156.7L563.5 1163.4L565.7 1164.7L577.2 1158L575 1156.7Z" fill="#60CDD4"/>
<path d="M581.5 1160.4L569.9 1167.1L572.2 1168.4L583.7 1161.7L581.5 1160.4Z" fill="#60CDD4"/>
<path d="M594.4 1167.9L582.9 1174.6L585.1 1175.9L596.6 1169.2L594.4 1167.9Z" fill="#60CDD4"/>
<path d="M600.9 1171.7L589.4 1178.4L591.6 1179.6L603.1 1172.9L600.9 1171.7Z" fill="#60CDD4"/>
<path d="M607.4 1175.4L595.9 1182.1L598.1 1183.4L609.6 1176.7L607.4 1175.4Z" fill="#60CDD4"/>
<path d="M152.8 906.1L135.2 916.2L137.4 917.5L155 907.3L152.8 906.1Z" fill="#60CDD4"/>
<path d="M178.8 921.1L161.2 931.2L163.4 932.5L181 922.3L178.8 921.1Z" fill="#60CDD4"/>
<path d="M204.7 936L187.1 946.2L189.3 947.4L207 937.3L204.7 936Z" fill="#60CDD4"/>
<path d="M230.7 951L213.1 961.1L215.3 962.4L232.9 952.3L230.7 951Z" fill="#60CDD4"/>
<path d="M256.7 966L239 976.1L241.2 977.4L258.9 967.3L256.7 966Z" fill="#60CDD4"/>
<path d="M282.6 981L265 991.1L267.2 992.4L284.8 982.3L282.6 981Z" fill="#60CDD4"/>
<path d="M308.6 996L290.9 1006.1L293.1 1007.4L310.8 997.2L308.6 996Z" fill="#60CDD4"/>
<path d="M334.5 1010.9L316.9 1021.1L319.1 1022.3L336.7 1012.2L334.5 1010.9Z" fill="#60CDD4"/>
<path d="M360.5 1025.9L342.8 1036L345.1 1037.3L362.7 1027.2L360.5 1025.9Z" fill="#60CDD4"/>
<path d="M386.4 1040.9L368.8 1051L371 1052.3L388.6 1042.2L386.4 1040.9Z" fill="#60CDD4"/>
<path d="M412.4 1055.9L394.8 1066L397 1067.3L414.6 1057.2L412.4 1055.9Z" fill="#60CDD4"/>
<path d="M438.3 1070.9L420.7 1081L422.9 1082.3L440.5 1072.1L438.3 1070.9Z" fill="#60CDD4"/>
<path d="M464.3 1085.8L446.7 1096L448.9 1097.2L466.5 1087.1L464.3 1085.8Z" fill="#60CDD4"/>
<path d="M490.2 1100.8L472.6 1110.9L474.8 1112.2L492.5 1102.1L490.2 1100.8Z" fill="#60CDD4"/>
<path d="M516.2 1115.8L498.6 1125.9L500.8 1127.2L518.4 1117.1L516.2 1115.8Z" fill="#60CDD4"/>
<path d="M542.2 1130.8L524.5 1140.9L526.7 1142.2L544.4 1132.1L542.2 1130.8Z" fill="#60CDD4"/>
<path d="M568.1 1145.8L550.5 1155.9L552.7 1157.2L570.3 1147L568.1 1145.8Z" fill="#60CDD4"/>
<path d="M594.1 1160.7L576.4 1170.9L578.6 1172.1L596.3 1162L594.1 1160.7Z" fill="#60CDD4"/>
<path d="M620 1175.7L602.4 1185.9L604.6 1187.1L622.2 1177L620 1175.7Z" fill="#60CDD4"/>
<path d="M646 1190.7L628.3 1200.8L630.6 1202.1L648.2 1192L646 1190.7Z" fill="#60CDD4"/>
<path d="M620.4 1182.9L608.9 1189.6L611.1 1190.9L622.6 1184.2L620.4 1182.9Z" fill="#60CDD4"/>
<path d="M626.9 1186.7L615.4 1193.3L617.6 1194.6L629.1 1187.9L626.9 1186.7Z" fill="#60CDD4"/>
<path d="M633.4 1190.4L621.9 1197.1L624.1 1198.4L635.6 1191.7L633.4 1190.4Z" fill="#60CDD4"/>
<path d="M639.8 1194.1L628.3 1200.8L630.6 1202.1L642.1 1195.4L639.8 1194.1Z" fill="#60CDD4"/>
</svg>
